<svg xmlns="http://www.w3.org/2000/svg" width="17.607" height="16" viewBox="0 0 17.607 16">
  <path id="bath" d="M17.806,10H4.2V5.531a1.58,1.58,0,0,1,.832-1.408,1.6,1.6,0,0,1,.918-.185,2.794,2.794,0,0,0,.67,2.845l.849.849a.8.8,0,0,0,1.132,0L11.432,4.8a.8.8,0,0,0,0-1.132l-.849-.849a2.8,2.8,0,0,0-3.625-.274A3.2,3.2,0,0,0,2.6,5.531V10H1.8a.8.8,0,1,0,0,1.6h.8v2.4a2.4,2.4,0,0,0,1.6,2.253v.948a.8.8,0,0,0,1.6,0v-.8h8v.8a.8.8,0,0,0,1.6,0v-.948a2.4,2.4,0,0,0,1.6-2.253v-2.4h.8a.8.8,0,1,0,0-1.6ZM7.754,3.954a1.2,1.2,0,0,1,1.7,0l.283.283-1.7,1.7-.283-.283a1.2,1.2,0,0,1,0-1.7Zm7.651,10.052a.8.8,0,0,1-.8.8H5a.8.8,0,0,1-.8-.8v-2.4h11.2Z" transform="translate(-1 -2.008)" fill="#003aa8"/>
</svg>
