<svg xmlns="http://www.w3.org/2000/svg" width="12.219" height="16.16" viewBox="0 0 12.219 16.16">
  <g id="glass-and-bottle-of-wine" transform="translate(-2.53)">
    <path id="Path_15" d="M8.318,8.15a3.759,3.759,0,0,0-.48-1.863l-.075-.131H3.083l-.073.131A3.765,3.765,0,0,0,2.53,8.15a3.252,3.252,0,0,0,2.483,3.339v3.966c-.809.033-1.412.156-1.412.3,0,.173.822.312,1.836.312s1.838-.139,1.838-.312c0-.146-.6-.269-1.412-.3V11.485A3.262,3.262,0,0,0,8.318,8.15ZM5.423,11A2.653,2.653,0,0,1,3.046,8.148a3.27,3.27,0,0,1,.343-1.477H7.458A3.284,3.284,0,0,1,7.8,8.148,2.652,2.652,0,0,1,5.423,11Zm7.85-9.22H11.215V0h2.058Zm0,2.212V2.334H11.215V4A2.5,2.5,0,0,0,9.738,6.28v9.88h5.011V6.28A2.5,2.5,0,0,0,13.273,4Zm1.033,9.644H10.225v-4.9h4.081ZM7.586,8.2s-.108,2.589-2.128,2.589S3.166,8.2,3.166,8.2Z" transform="translate(0)" fill="#003aa8"/>
  </g>
</svg>
