<svg xmlns="http://www.w3.org/2000/svg" width="16.647" height="9.355" viewBox="0 0 16.647 9.355">
  <g id="Clocks_1_" transform="translate(0 -14.017)">
    <path id="Clocks" d="M16.393,17.2a.875.875,0,0,0-.668-.326h-.378v-.305a1.032,1.032,0,0,0-1.062-1h-.5V15a.984.984,0,0,0-.31-.71,1.1,1.1,0,0,0-1.461,0,.984.984,0,0,0-.31.711V17.65H4.942V15a.983.983,0,0,0-.31-.71,1.1,1.1,0,0,0-1.461,0,.983.983,0,0,0-.31.71v.564H2.3a1.034,1.034,0,0,0-.7.267.918.918,0,0,0-.3.672v.361H.926a.878.878,0,0,0-.671.328A1.143,1.143,0,0,0,0,17.928v1.523a1.142,1.142,0,0,0,.255.731.878.878,0,0,0,.671.328H1.3v.361a.918.918,0,0,0,.3.672,1.033,1.033,0,0,0,.7.267h.559v.564a.983.983,0,0,0,.31.71,1.073,1.073,0,0,0,1.461,0,.983.983,0,0,0,.31-.71V19.73h6.763v2.645a.983.983,0,0,0,.31.71,1.073,1.073,0,0,0,1.461,0,.984.984,0,0,0,.31-.71v-.564h.5a1.031,1.031,0,0,0,1.062-1v-.305h.378a.877.877,0,0,0,.668-.326,1.137,1.137,0,0,0,.254-.728V17.924A1.138,1.138,0,0,0,16.393,17.2ZM.926,19.99a.356.356,0,0,1-.271-.14.629.629,0,0,1-.135-.4V17.928a.629.629,0,0,1,.135-.4.356.356,0,0,1,.271-.14H1.3v2.6Zm1.376,1.3a.52.52,0,0,1-.348-.13.391.391,0,0,1-.133-.289V16.508a.391.391,0,0,1,.132-.289.522.522,0,0,1,.349-.131h.559v5.2Zm2.12,1.084a.455.455,0,0,1-.147.332.573.573,0,0,1-.746,0,.454.454,0,0,1-.147-.332V15a.455.455,0,0,1,.147-.332.553.553,0,0,1,.747,0A.455.455,0,0,1,4.422,15v7.37Zm.52-3.165V18.17h6.763v1.04Zm8.324,3.165a.455.455,0,0,1-.147.332.573.573,0,0,1-.746,0,.454.454,0,0,1-.147-.332V15a.455.455,0,0,1,.147-.332.553.553,0,0,1,.747,0,.454.454,0,0,1,.147.332v7.37Zm1.561-1.559a.512.512,0,0,1-.542.475h-.5v-5.2h.5a.512.512,0,0,1,.542.475v4.252Zm1.3-1.36a.626.626,0,0,1-.134.4.353.353,0,0,1-.268.139h-.378v-2.6h.378a.353.353,0,0,1,.268.139.624.624,0,0,1,.134.4Z" transform="translate(0 0)" fill="#003aa8"/>
  </g>
</svg>
