<svg id="sports-car" xmlns="http://www.w3.org/2000/svg" width="16.435" height="11.632" viewBox="0 0 16.435 11.632">
  <g id="Group_25" transform="translate(0 0)">
    <path id="Path_8" d="M16.341,9.306a.423.423,0,0,0-.326-.155h-1.6A5.453,5.453,0,0,0,12.921,6.7c-2.022-1.33-7.385-1.33-9.407,0A5.48,5.48,0,0,0,2.02,9.151H.421a.421.421,0,0,0-.412.506l.237,1.148a.421.421,0,0,0,.412.335h.474A2.842,2.842,0,0,0,.449,13a2.782,2.782,0,0,0,.879,2.089l.019.015v1.606a.632.632,0,0,0,.631.631H3.454a.632.632,0,0,0,.631-.631v-.646H12.35v.646a.632.632,0,0,0,.631.631h1.475a.632.632,0,0,0,.631-.631V15.133a2.887,2.887,0,0,0,.184-3.993h.505a.419.419,0,0,0,.412-.336l.237-1.148A.424.424,0,0,0,16.341,9.306ZM4.207,7.759c1.612-1.061,6.409-1.061,8.019,0a5.2,5.2,0,0,1,1.085,2.052H3.123A5.2,5.2,0,0,1,4.207,7.759Zm-1.888,5.4A1.242,1.242,0,1,1,3.561,14.4,1.242,1.242,0,0,1,2.319,13.156ZM12.89,14.4a1.242,1.242,0,1,1,1.242-1.242A1.242,1.242,0,0,1,12.89,14.4Z" transform="translate(0 -5.707)" fill="#003aa8"/>
  </g>
</svg>
